<svg xmlns="http://www.w3.org/2000/svg" width="512" height="512" viewBox="0 0 246.118 246.118"><path d="M20.488 214.394h3.535c-3.311-6.113-5.257-13.436-5.257-21.318v-80.283c0-7.881 1.942-15.21 5.257-21.314h-3.535C9.175 91.478 0 100.648 0 111.966v81.939c0 11.314 9.171 20.489 20.488 20.489zm55.508 0h149.643c11.313 0 20.479-9.175 20.479-20.488v-81.944c0-11.313-9.166-20.488-20.479-20.488h-12.456V50.493c0-15.623-11.947-28.327-26.64-28.327h-76.477c-14.68 0-26.628 12.708-26.628 28.327v40.979h-7.442c3.312 6.109 5.267 13.434 5.267 21.314v80.278c-.005 7.889-1.955 15.216-5.267 21.33zm129.136-14.416c-4.896 0-8.862-3.977-8.862-8.872 0-4.905 3.967-8.877 8.862-8.877a8.875 8.875 0 0 1 8.882 8.877c.008 4.895-3.967 8.872-8.882 8.872zm10.93-64.869v33.636H102.029v-33.636h114.033zM95.729 50.498c0-8.847 6.434-16.034 14.337-16.034h76.477c7.915 0 14.347 7.187 14.347 16.034v45.096c0 8.839-6.432 16.034-14.347 16.034h-76.477c-7.904 0-14.337-7.19-14.337-16.034V50.498zM50.008 223.952c13.077 0 23.671-13.828 23.671-30.877v-80.283c0-17.051-10.594-30.873-23.671-30.873-13.065 0-23.672 13.826-23.672 30.873v80.283c0 17.049 10.606 30.877 23.672 30.877z" data-original="#000000" class="active-path" data-old_color="#000000" fill="#FFF"/><path d="M109.469 55.186h77.064a4.778 4.778 0 0 0 4.779-4.779 4.777 4.777 0 0 0-4.779-4.779h-77.064a4.778 4.778 0 0 0-4.779 4.779 4.778 4.778 0 0 0 4.779 4.779zm0 22.126h77.064a4.779 4.779 0 1 0 0-9.558h-77.064a4.779 4.779 0 1 0 0 9.558zm0 22.127h77.064a4.779 4.779 0 1 0 0-9.558h-77.064a4.78 4.78 0 0 0 0 9.558z" data-original="#000000" class="active-path" data-old_color="#000000" fill="#FFF"/></svg>